<?xml version="1.0" encoding="utf-8"?>
<!-- Generator: Adobe Illustrator 24.3.0, SVG Export Plug-In . SVG Version: 6.00 Build 0)  -->
<svg version="1.1" id="Layer_1" xmlns="http://www.w3.org/2000/svg" xmlns:xlink="http://www.w3.org/1999/xlink" x="0px" y="0px"
	 viewBox="0 0 800 800" style="enable-background:new 0 0 800 800;" xml:space="preserve">
<style type="text/css">
	.st0{fill:#69C9D0;}
	.st1{fill:#EE1D52;}
</style>
<path class="st0" d="M112.2,568.9L112.2,568.9l2,5.5C114,573.8,113.3,571.9,112.2,568.9z"/>
<g>
	<path class="st1" d="M211.3,494.8c3.9-32.3,17.2-50.5,42.2-69c35.8-25.1,80.5-10.9,80.5-10.9v-84.4c10.9-0.3,21.7,0.4,32.5,1.9V441
		c0,0-44.7-14.2-80.4,10.9c-25,18.6-38.3,36.7-42.2,69c-0.1,17.6,3.2,40.5,18.4,60.4c-3.8-1.9-7.6-4.1-11.5-6.6
		C217.2,552.3,211.1,518.6,211.3,494.8z M550.9,174.5c-24.6-27-33.9-54.2-37.3-73.3h31c0,0-6.2,50.1,38.8,99.5l0.6,0.7
		C571.9,193.7,560.8,184.7,550.9,174.5z M700,250.9v106.4c0,0-39.5-1.5-68.7-9c-40.8-10.4-67.1-26.4-67.1-26.4s-18.1-11.4-19.6-12.2
		v219.7c0,12.2-3.4,42.8-13.6,68.3c-13.3,33.3-33.9,55.2-37.7,59.7c0,0-25,29.6-69.2,49.5c-39.8,18-74.7,17.5-85.2,18
		c0,0-60.4,2.4-114.8-32.9c-11.8-7.8-22.7-16.6-32.8-26.3l0.3,0.2c54.4,35.3,114.8,32.9,114.8,32.9c10.5-0.5,45.4,0,85.2-18
		c44.1-19.9,69.2-49.5,69.2-49.5c3.7-4.5,24.4-26.4,37.7-59.7c10.2-25.5,13.6-56,13.6-68.3V283.7c1.5,0.8,19.6,12.2,19.6,12.2
		s26.2,16,67.1,26.4c29.2,7.4,68.7,9,68.7,9v-83.4C681,250.9,692.5,251.7,700,250.9z"/>
	<path d="M667.5,247.8v83.4c0,0-39.5-1.5-68.7-9c-40.8-10.4-67.1-26.4-67.1-26.4s-18.1-11.4-19.6-12.2v219.8
		c0,12.2-3.4,42.8-13.6,68.3c-13.3,33.4-33.9,55.2-37.7,59.7c0,0-25,29.6-69.2,49.5c-39.8,18-74.7,17.5-85.2,18
		c0,0-60.4,2.4-114.8-32.9l-0.3-0.2c-5.7-5.6-11.1-11.4-16.2-17.6c-17.4-21.2-28-46.2-30.7-53.3c0,0,0-0.1,0-0.1
		c-4.3-12.4-13.3-42.2-12.1-71c2.2-50.9,20.1-82.1,24.8-90c12.5-21.3,28.8-40.4,48.2-56.4c17.1-13.8,36.4-24.8,57.3-32.5
		c22.5-9.1,46.7-13.9,71.1-14.3v84.4c0,0-44.7-14.2-80.4,10.9c-25,18.6-38.3,36.7-42.2,69c-0.2,23.8,5.9,57.5,39.3,80
		c3.9,2.5,7.7,4.7,11.5,6.6c5.8,7.6,12.9,14.2,21,19.6c32.6,20.7,60,22.1,95,8.7c23.3-9,40.9-29.2,49-51.6c5.1-14,5-28.1,5-42.6
		V101.2h81.4c3.4,19.1,12.7,46.3,37.3,73.3c9.9,10.2,21,19.2,33.1,26.8c3.6,3.7,21.9,22,45.4,33.3
		C641.5,240.4,654.3,244.8,667.5,247.8z"/>
	<path class="st0" d="M262.8,344.8c-20.8,7.7-40.2,18.7-57.3,32.5c-19.4,16-35.7,35.2-48.2,56.6c-4.7,7.8-22.6,39.1-24.8,90
		c-1.2,28.8,7.8,58.6,12.1,71c0,0,0,0.1,0,0.1c2.7,7.1,13.3,32.1,30.7,53.3c5,6.1,10.4,12,16.2,17.6c-18.4-12.2-34.8-26.9-48.7-43.7
		c-17.2-21-27.8-45.7-30.6-53c0-0.1,0-0.1,0-0.2v-0.1c-4.3-12.4-13.4-42.2-12.1-71.1c2.2-50.9,20.1-82.1,24.8-90
		c12.5-21.4,28.8-40.5,48.2-56.6c17.1-13.8,36.4-24.8,57.3-32.5c13-5.2,26.5-9,40.4-11.4c20.9-3.5,42.2-3.8,63.2-0.9v24.1
		C309.5,330.9,285.4,335.7,262.8,344.8z"/>
	<path class="st0" d="M513.6,101.2h-81.4v414.2c0,14.6,0,28.6-5,42.6c-8.2,22.4-25.7,42.6-49,51.6c-35,13.5-62.3,12-95-8.7
		c-8.1-5.3-15.2-11.9-21.1-19.5c27.8,14.2,52.7,14,83.5,2.1c23.3-9,40.8-29.2,49-51.6c5.1-14,5.1-28.1,5.1-42.6V75H512
		C512,75,510.8,85.3,513.6,101.2z M667.5,224.8v23.1c-13.2-3-26-7.5-38.1-13.3c-23.5-11.2-41.8-29.6-45.4-33.3
		c4.2,2.6,8.5,5,12.9,7.1C625.5,222.1,653.6,226.2,667.5,224.8z"/>
</g>
</svg>
